<svg width="324" height="324" viewBox="0 0 324 324" fill="none" xmlns="http://www.w3.org/2000/svg">
<rect width="324" height="324" rx="67.4738" fill="url(#paint0_linear_42772_61794)"/>
<g filter="url(#filter0_d_42772_61794)">
<rect x="147.102" y="77.9863" width="30.4841" height="168.749" rx="15.242" fill="#F9F9F9" fill-opacity="0.3"/>
<g filter="url(#filter1_d_42772_61794)">
<path d="M208.077 93.2284C208.077 84.8104 214.901 77.9863 223.319 77.9863C231.737 77.9863 238.561 84.8104 238.561 93.2284V231.493C238.561 239.911 231.737 246.735 223.319 246.735C214.901 246.735 208.077 239.911 208.077 231.493V93.2284Z" fill="url(#paint1_linear_42772_61794)" shape-rendering="crispEdges"/>
<path d="M223.319 78.4688C231.471 78.4688 238.079 85.0768 238.079 93.2285V231.493C238.079 239.645 231.471 246.253 223.319 246.253C215.168 246.253 208.56 239.645 208.56 231.493V93.2285C208.56 85.0767 215.168 78.4688 223.319 78.4688Z" stroke="white" stroke-opacity="0.4" stroke-width="0.963911" shape-rendering="crispEdges"/>
</g>
<g filter="url(#filter2_d_42772_61794)">
<path d="M147.102 93.2283C147.102 84.8104 153.926 77.9863 162.344 77.9863C170.762 77.9863 177.586 84.8104 177.586 93.2284V167.368C177.586 175.786 170.762 182.611 162.344 182.611C153.926 182.611 147.102 175.786 147.102 167.368V93.2283Z" fill="url(#paint2_linear_42772_61794)" shape-rendering="crispEdges"/>
<path d="M162.344 78.4688C170.495 78.4688 177.104 85.0768 177.104 93.2285V167.368C177.104 175.52 170.495 182.129 162.344 182.129C154.192 182.129 147.584 175.52 147.584 167.368V93.2285C147.584 85.0767 154.192 78.4688 162.344 78.4688Z" stroke="white" stroke-opacity="0.4" stroke-width="0.963911" shape-rendering="crispEdges"/>
</g>
<g filter="url(#filter3_d_42772_61794)">
<rect x="86.1377" y="77.9863" width="30.4841" height="168.749" rx="15.242" fill="url(#paint3_linear_42772_61794)" shape-rendering="crispEdges"/>
<rect x="86.6197" y="78.4683" width="29.5202" height="167.785" rx="14.7601" stroke="white" stroke-opacity="0.4" stroke-width="0.963911" shape-rendering="crispEdges"/>
</g>
</g>
<defs>
<filter id="filter0_d_42772_61794" x="27.3218" y="28.2185" width="270.069" height="270.069" filterUnits="userSpaceOnUse" color-interpolation-filters="sRGB">
<feFlood flood-opacity="0" result="BackgroundImageFix"/>
<feColorMatrix in="SourceAlpha" type="matrix" values="0 0 0 0 0 0 0 0 0 0 0 0 0 0 0 0 0 0 127 0" result="hardAlpha"/>
<feOffset dy="0.891805"/>
<feGaussianBlur stdDeviation="4.23607"/>
<feComposite in2="hardAlpha" operator="out"/>
<feColorMatrix type="matrix" values="0 0 0 0 0 0 0 0 0 0 0 0 0 0 0 0 0 0 0.25 0"/>
<feBlend mode="normal" in2="BackgroundImageFix" result="effect1_dropShadow_42772_61794"/>
<feBlend mode="normal" in="SourceGraphic" in2="effect1_dropShadow_42772_61794" result="shape"/>
</filter>
<filter id="filter1_d_42772_61794" x="193.977" y="65.8863" width="58.6844" height="196.948" filterUnits="userSpaceOnUse" color-interpolation-filters="sRGB">
<feFlood flood-opacity="0" result="BackgroundImageFix"/>
<feColorMatrix in="SourceAlpha" type="matrix" values="0 0 0 0 0 0 0 0 0 0 0 0 0 0 0 0 0 0 127 0" result="hardAlpha"/>
<feOffset dy="2"/>
<feGaussianBlur stdDeviation="7.05"/>
<feComposite in2="hardAlpha" operator="out"/>
<feColorMatrix type="matrix" values="0 0 0 0 0 0 0 0 0 0 0 0 0 0 0 0 0 0 0.2 0"/>
<feBlend mode="normal" in2="BackgroundImageFix" result="effect1_dropShadow_42772_61794"/>
<feBlend mode="normal" in="SourceGraphic" in2="effect1_dropShadow_42772_61794" result="shape"/>
</filter>
<filter id="filter2_d_42772_61794" x="133.002" y="65.8863" width="58.6844" height="132.825" filterUnits="userSpaceOnUse" color-interpolation-filters="sRGB">
<feFlood flood-opacity="0" result="BackgroundImageFix"/>
<feColorMatrix in="SourceAlpha" type="matrix" values="0 0 0 0 0 0 0 0 0 0 0 0 0 0 0 0 0 0 127 0" result="hardAlpha"/>
<feOffset dy="2"/>
<feGaussianBlur stdDeviation="7.05"/>
<feComposite in2="hardAlpha" operator="out"/>
<feColorMatrix type="matrix" values="0 0 0 0 0 0 0 0 0 0 0 0 0 0 0 0 0 0 0.2 0"/>
<feBlend mode="normal" in2="BackgroundImageFix" result="effect1_dropShadow_42772_61794"/>
<feBlend mode="normal" in="SourceGraphic" in2="effect1_dropShadow_42772_61794" result="shape"/>
</filter>
<filter id="filter3_d_42772_61794" x="72.0377" y="65.8863" width="58.6844" height="196.948" filterUnits="userSpaceOnUse" color-interpolation-filters="sRGB">
<feFlood flood-opacity="0" result="BackgroundImageFix"/>
<feColorMatrix in="SourceAlpha" type="matrix" values="0 0 0 0 0 0 0 0 0 0 0 0 0 0 0 0 0 0 127 0" result="hardAlpha"/>
<feOffset dy="2"/>
<feGaussianBlur stdDeviation="7.05"/>
<feComposite in2="hardAlpha" operator="out"/>
<feColorMatrix type="matrix" values="0 0 0 0 0 0 0 0 0 0 0 0 0 0 0 0 0 0 0.2 0"/>
<feBlend mode="normal" in2="BackgroundImageFix" result="effect1_dropShadow_42772_61794"/>
<feBlend mode="normal" in="SourceGraphic" in2="effect1_dropShadow_42772_61794" result="shape"/>
</filter>
<linearGradient id="paint0_linear_42772_61794" x1="298.246" y1="-7.45488" x2="137.353" y2="336.514" gradientUnits="userSpaceOnUse">
<stop/>
<stop offset="1" stop-color="#4A4B51"/>
</linearGradient>
<linearGradient id="paint1_linear_42772_61794" x1="223.319" y1="77.9863" x2="223.319" y2="246.735" gradientUnits="userSpaceOnUse">
<stop offset="0.287997" stop-color="white"/>
<stop offset="1" stop-color="#CDCDCD" stop-opacity="0.83"/>
</linearGradient>
<linearGradient id="paint2_linear_42772_61794" x1="162.344" y1="77.9863" x2="162.344" y2="182.611" gradientUnits="userSpaceOnUse">
<stop offset="0.287997" stop-color="white"/>
<stop offset="1" stop-color="#CDCDCD" stop-opacity="0.83"/>
</linearGradient>
<linearGradient id="paint3_linear_42772_61794" x1="101.38" y1="77.9863" x2="101.38" y2="246.735" gradientUnits="userSpaceOnUse">
<stop offset="0.287997" stop-color="white"/>
<stop offset="1" stop-color="#CDCDCD" stop-opacity="0.83"/>
</linearGradient>
</defs>
</svg>
