<svg width="171" height="96" viewBox="0 0 171 96" fill="none" xmlns="http://www.w3.org/2000/svg">
<g filter="url(#filter0_f_42274_79648)">
<path fill-rule="evenodd" clip-rule="evenodd" d="M83.1132 85.4682L16.2637 48.6917C-2.18449 38.5431 -1.18745 23.087 18.4862 14.1981C38.1599 5.30914 69.1103 6.32902 87.5585 16.4776C88.998 17.2677 90.3168 18.0916 91.5188 18.9426L149.876 51.0474C151.453 51.7271 152.968 52.464 154.408 53.2541C172.856 63.4027 171.859 78.8587 152.185 87.7477C132.512 96.6366 101.561 95.6168 83.1132 85.4682Z" fill="url(#paint0_linear_42274_79648)" fill-opacity="0.6"/>
</g>
<path fill-rule="evenodd" clip-rule="evenodd" d="M77.0236 80.2147L14.657 45.9044C6.1924 41.2496 2.11675 35.3954 2.34212 29.6611L2.59023 23.3481C2.91555 17.4867 7.50002 17.8928 16.7305 13.7239C35.0849 5.43109 63.9598 6.38256 81.1708 15.8506C82.5138 16.5877 83.7442 17.3564 84.8655 18.1503L139.309 48.1022C140.781 48.7363 142.194 49.4238 143.537 50.1609C151.73 54.6675 156.054 54.5362 156.1 60.0913C156.103 60.2748 155.86 66.2212 155.852 66.4043C155.619 72.3315 150.791 78.1272 141.464 82.3414C123.11 90.6342 94.2347 89.6827 77.0236 80.2147Z" fill="url(#paint1_radial_42274_79648)"/>
<path fill-rule="evenodd" clip-rule="evenodd" d="M77.272 73.9022L14.9054 39.5919C-2.30568 30.1239 -1.37551 15.7043 16.9789 7.41146C35.3332 -0.881398 64.2082 0.0700697 81.4192 9.53807C82.7622 10.2752 83.9926 11.0439 85.1139 11.8378L139.558 41.7897C141.029 42.4238 142.443 43.1113 143.786 43.8484C160.997 53.3164 160.067 67.736 141.712 76.0289C123.358 84.3217 94.4831 83.3702 77.272 73.9022Z" fill="url(#paint2_radial_42274_79648)"/>
<g style="mix-blend-mode:soft-light" filter="url(#filter1_i_42274_79648)">
<path fill-rule="evenodd" clip-rule="evenodd" d="M77.272 73.9022L14.9054 39.5919C-2.30568 30.1239 -1.37551 15.7043 16.9789 7.41146C35.3332 -0.881398 64.2082 0.0700697 81.4192 9.53807C82.7622 10.2752 83.9926 11.0439 85.1139 11.8378L139.558 41.7897C141.029 42.4238 142.443 43.1113 143.786 43.8484C160.997 53.3164 160.067 67.736 141.712 76.0289C123.358 84.3217 94.4831 83.3702 77.272 73.9022Z" fill="url(#paint3_linear_42274_79648)"/>
</g>
<g filter="url(#filter2_f_42274_79648)">
<path fill-rule="evenodd" clip-rule="evenodd" d="M141.447 42.7167C157.067 50.5265 156.746 63.3716 140.727 71.3777C124.709 79.3871 99.0251 79.5474 83.4022 71.7376C67.7826 63.9278 68.1033 51.0827 84.122 43.0766C100.141 35.0673 125.828 34.9069 141.447 42.7167Z" fill="url(#paint4_linear_42274_79648)" fill-opacity="0.6"/>
</g>
<path fill-rule="evenodd" clip-rule="evenodd" d="M149.953 49.5117V54.6583C149.953 59.9324 145.867 65.2491 137.727 69.3192C121.708 77.3286 96.0243 77.4889 80.4015 69.6791C72.7193 65.838 68.8913 60.7798 68.8945 55.6791V50.5325C68.8945 55.6333 72.7193 60.6915 80.4015 64.5326C96.021 72.3424 121.708 72.182 137.727 64.1727C145.867 60.1058 149.953 54.7859 149.953 49.5117Z" fill="url(#paint5_radial_42274_79648)"/>
<path fill-rule="evenodd" clip-rule="evenodd" d="M138.447 35.5117C154.067 43.3214 153.746 56.1633 137.727 64.1726C121.709 72.182 96.0251 72.3423 80.4022 64.5325C64.7826 56.7228 65.1033 43.8776 81.122 35.8715C97.1408 27.8622 122.828 27.7019 138.447 35.5117Z" fill="url(#paint6_radial_42274_79648)"/>
<g style="mix-blend-mode:color-burn" filter="url(#filter3_i_42274_79648)">
<path fill-rule="evenodd" clip-rule="evenodd" d="M138.447 35.5117C154.067 43.3214 153.746 56.1633 137.727 64.1726C121.709 72.182 96.0251 72.3423 80.4022 64.5325C64.7826 56.7228 65.1033 43.8776 81.122 35.8715C97.1408 27.8622 122.828 27.7019 138.447 35.5117Z" fill="url(#paint7_radial_42274_79648)"/>
</g>
<path d="M84.6338 51.4392L84.6272 54.024L84.5684 43.5378L84.5749 40.9531L84.6338 51.4392Z" fill="#808080"/>
<path d="M132.457 54.0988H89.2428C87.9734 54.0988 86.8217 53.8011 85.9874 53.3201C85.1531 52.8392 84.6329 52.1717 84.6296 51.4355L84.623 54.0203C84.6263 54.7564 85.1465 55.4206 85.9809 55.9048C86.8152 56.3858 87.9668 56.6835 89.2363 56.6835H132.45C134.992 56.6835 137.044 55.4926 137.034 54.0203L137.041 51.4355C137.05 52.9079 134.999 54.1021 132.457 54.0988Z" fill="url(#paint8_radial_42274_79648)"/>
<path d="M135.682 49.5539C136.517 50.0348 137.037 50.7023 137.04 51.4384C137.05 52.9107 134.995 54.105 132.456 54.1017H89.2425C87.973 54.1017 86.8213 53.804 85.987 53.323C85.1527 52.842 84.6325 52.1746 84.6292 51.4384L84.5703 40.9523C84.5605 39.4833 86.6152 38.2891 89.1541 38.2891C90.4236 38.2891 91.5753 38.5868 92.4096 39.0678C93.2439 39.5487 93.7641 40.2162 93.7674 40.9523L93.8132 48.7752H132.427C133.7 48.7719 134.848 49.0696 135.682 49.5539Z" fill="url(#paint9_radial_42274_79648)"/>
<defs>
<filter id="filter0_f_42274_79648" x="0.970248" y="6.06009" width="168.731" height="89.8251" filterUnits="userSpaceOnUse" color-interpolation-filters="sRGB">
<feFlood flood-opacity="0" result="BackgroundImageFix"/>
<feBlend mode="normal" in="SourceGraphic" in2="BackgroundImageFix" result="shape"/>
<feGaussianBlur stdDeviation="1.04222" result="effect1_foregroundBlur_42274_79648"/>
</filter>
<filter id="filter1_i_42274_79648" x="2.58203" y="1.76367" width="166.23" height="102.596" filterUnits="userSpaceOnUse" color-interpolation-filters="sRGB">
<feFlood flood-opacity="0" result="BackgroundImageFix"/>
<feBlend mode="normal" in="SourceGraphic" in2="BackgroundImageFix" result="shape"/>
<feColorMatrix in="SourceAlpha" type="matrix" values="0 0 0 0 0 0 0 0 0 0 0 0 0 0 0 0 0 0 127 0" result="hardAlpha"/>
<feOffset dx="12.7028" dy="22.6835"/>
<feGaussianBlur stdDeviation="42.7357"/>
<feComposite in2="hardAlpha" operator="arithmetic" k2="-1" k3="1"/>
<feColorMatrix type="matrix" values="0 0 0 0 0.882353 0 0 0 0 0.6 0 0 0 0 1 0 0 0 1 0"/>
<feBlend mode="normal" in2="shape" result="effect1_innerShadow_42274_79648"/>
</filter>
<filter id="filter2_f_42274_79648" x="69.8101" y="34.8785" width="85.2294" height="44.6982" filterUnits="userSpaceOnUse" color-interpolation-filters="sRGB">
<feFlood flood-opacity="0" result="BackgroundImageFix"/>
<feBlend mode="normal" in="SourceGraphic" in2="BackgroundImageFix" result="shape"/>
<feGaussianBlur stdDeviation="1.04222" result="effect1_foregroundBlur_42274_79648"/>
</filter>
<filter id="filter3_i_42274_79648" x="68.8945" y="29.7578" width="93.7633" height="63.2128" filterUnits="userSpaceOnUse" color-interpolation-filters="sRGB">
<feFlood flood-opacity="0" result="BackgroundImageFix"/>
<feBlend mode="normal" in="SourceGraphic" in2="BackgroundImageFix" result="shape"/>
<feColorMatrix in="SourceAlpha" type="matrix" values="0 0 0 0 0 0 0 0 0 0 0 0 0 0 0 0 0 0 127 0" result="hardAlpha"/>
<feOffset dx="12.7028" dy="22.6835"/>
<feGaussianBlur stdDeviation="42.7357"/>
<feComposite in2="hardAlpha" operator="arithmetic" k2="-1" k3="1"/>
<feColorMatrix type="matrix" values="0 0 0 0 0.882353 0 0 0 0 0.6 0 0 0 0 1 0 0 0 1 0"/>
<feBlend mode="normal" in2="shape" result="effect1_innerShadow_42274_79648"/>
</filter>
<linearGradient id="paint0_linear_42274_79648" x1="133.788" y1="68.9897" x2="154.913" y2="95.5691" gradientUnits="userSpaceOnUse">
<stop stop-color="#01004C"/>
<stop offset="1" stop-color="#01004C" stop-opacity="0.1"/>
</linearGradient>
<radialGradient id="paint1_radial_42274_79648" cx="0" cy="0" r="1" gradientTransform="matrix(-130.842 -99.1429 204.562 -269.955 149.627 75.5127)" gradientUnits="userSpaceOnUse">
<stop offset="0.0205773" stop-color="#00025C"/>
<stop offset="1" stop-color="#06ACFF"/>
</radialGradient>
<radialGradient id="paint2_radial_42274_79648" cx="0" cy="0" r="1" gradientUnits="userSpaceOnUse" gradientTransform="translate(149.872 69.2001) rotate(-150.336) scale(148.915 307.254)">
<stop offset="0.0205773" stop-color="#0004AD"/>
<stop offset="1" stop-color="#06ACFF"/>
</radialGradient>
<linearGradient id="paint3_linear_42274_79648" x1="20.2886" y1="-0.00988952" x2="146.746" y2="86.5143" gradientUnits="userSpaceOnUse">
<stop stop-color="#18FFEC"/>
<stop offset="1" stop-color="#002967"/>
</linearGradient>
<linearGradient id="paint4_linear_42274_79648" x1="136.417" y1="65.0903" x2="147.236" y2="77.6568" gradientUnits="userSpaceOnUse">
<stop stop-color="#01004C"/>
<stop offset="1" stop-color="#01004C" stop-opacity="0.1"/>
</linearGradient>
<radialGradient id="paint5_radial_42274_79648" cx="0" cy="0" r="1" gradientUnits="userSpaceOnUse" gradientTransform="translate(123.68 75.014) rotate(-133.798) scale(56.9008 162.679)">
<stop offset="0.0205773" stop-color="#000252"/>
<stop offset="1" stop-color="#06FF7E"/>
</radialGradient>
<radialGradient id="paint6_radial_42274_79648" cx="0" cy="0" r="1" gradientTransform="matrix(-97.1999 -82.8407 170.927 -200.535 174.877 109.895)" gradientUnits="userSpaceOnUse">
<stop offset="0.0205773" stop-color="#0004AD"/>
<stop offset="1" stop-color="#06FF7E"/>
</radialGradient>
<radialGradient id="paint7_radial_42274_79648" cx="0" cy="0" r="1" gradientTransform="matrix(-97.1999 -82.8407 170.927 -200.535 174.877 109.895)" gradientUnits="userSpaceOnUse">
<stop offset="0.0205773" stop-color="#0004AD"/>
<stop offset="1" stop-color="#06FF7E"/>
</radialGradient>
<radialGradient id="paint8_radial_42274_79648" cx="0" cy="0" r="1" gradientTransform="matrix(-68.8597 -16.6169 124.463 -20.4682 153.156 61.8124)" gradientUnits="userSpaceOnUse">
<stop offset="0.0205773" stop-color="#004019"/>
<stop offset="1" stop-color="white"/>
</radialGradient>
<radialGradient id="paint9_radial_42274_79648" cx="0" cy="0" r="1" gradientTransform="matrix(-62.917 -32.3211 110.64 -78.2407 153.172 69.5556)" gradientUnits="userSpaceOnUse">
<stop offset="0.0205773" stop-color="#00AD42"/>
<stop offset="1" stop-color="white"/>
</radialGradient>
</defs>
</svg>
